<svg width="256" height="256" viewBox="0 0 14 14" xmlns="http://www.w3.org/2000/svg"><rect x="0" y="0" width="14" height="14" rx="8" fill="none"/><path fill="#000000" fill-rule="evenodd" d="M1 2.234a1 1 0 0 0-1 1v7.532a1 1 0 1 0 2 0V8.782l4.233 2.793c.536.327 1.27-.086 1.27-.724V8.126l5.227 3.45c.535.326 1.27-.087 1.27-.725V3.128a.823.823 0 0 0-.35-.648c-.262-.189-.623-.237-.92-.056l-5.227 3.47V3.128a.823.823 0 0 0-.35-.648a.832.832 0 0 0-.92-.056L2 5.234v-2a1 1 0 0 0-1-1" clip-rule="evenodd"/></svg>