<svg width="24" height="24" viewBox="0 0 24 24" fill="none" xmlns="http://www.w3.org/2000/svg">
  <path d="M9.6 2.5H14.4L15 5.1C15.57 5.33 16.11 5.64 16.6 6.01L19.15 5.2L21.55 9.36L19.61 11.24C19.66 11.49 19.68 11.75 19.68 12C19.68 12.25 19.66 12.51 19.61 12.76L21.55 14.64L19.15 18.8L16.6 17.99C16.11 18.36 15.57 18.67 15 18.9L14.4 21.5H9.6L9 18.9C8.43 18.67 7.89 18.36 7.4 17.99L4.85 18.8L2.45 14.64L4.39 12.76C4.34 12.51 4.32 12.25 4.32 12C4.32 11.75 4.34 11.49 4.39 11.24L2.45 9.36L4.85 5.2L7.4 6.01C7.89 5.64 8.43 5.33 9 5.1L9.6 2.5Z" stroke="#ffffff" stroke-width="1.8" stroke-linejoin="round"/>
  <circle cx="12" cy="12" r="3.2" stroke="#ffffff" stroke-width="1.8"/>
</svg>
